<svg width="64" height="64" viewBox="0 0 64 64" fill="none" xmlns="http://www.w3.org/2000/svg">
<path d="M61.6548 31.8223C61.6548 48.3908 48.2233 61.8223 31.6548 61.8223C15.0862 61.8223 1.65479 48.3908 1.65479 31.8223C1.65479 15.2537 15.0862 1.82227 31.6548 1.82227C48.2233 1.82227 61.6548 15.2537 61.6548 31.8223Z" fill="#FF9900"/>
<path fill-rule="evenodd" clip-rule="evenodd" d="M31.6548 3.32227C15.9147 3.32227 3.15479 16.0822 3.15479 31.8223C3.15479 47.5624 15.9147 60.3223 31.6548 60.3223C47.3949 60.3223 60.1548 47.5624 60.1548 31.8223C60.1548 16.0822 47.3949 3.32227 31.6548 3.32227ZM0.154785 31.8223C0.154785 14.4253 14.2578 0.322266 31.6548 0.322266C49.0518 0.322266 63.1548 14.4253 63.1548 31.8223C63.1548 49.2192 49.0518 63.3223 31.6548 63.3223C14.2578 63.3223 0.154785 49.2192 0.154785 31.8223Z" fill="white"/>
<g filter="url(#filter0_d_120_511)">
<path d="M49.8515 29.5788C49.8515 25.0463 46.1764 21.3712 41.6427 21.3712C41.0186 21.3712 40.411 21.4423 39.828 21.5744C39.4492 17.3917 35.9352 14.1143 31.6547 14.1143C27.3732 14.1143 23.8591 17.3917 23.4816 21.5744C22.8973 21.4423 22.2898 21.3712 21.6668 21.3712C17.1331 21.3712 13.458 25.0463 13.458 29.5788C13.458 32.9619 15.5049 35.8673 18.427 37.1234C17.6951 38.3518 17.2731 39.7878 17.2731 41.3217C17.2731 45.8542 20.9482 49.5304 25.4818 49.5304C27.943 49.5304 30.1498 48.4453 31.6547 46.7294C33.1585 48.4454 35.3665 49.5304 37.8277 49.5304C42.3613 49.5304 46.0364 45.8542 46.0364 41.3217C46.0364 39.7879 45.6143 38.3519 44.8813 37.1234C47.8045 35.8672 49.8515 32.9618 49.8515 29.5788ZM31.6547 40.1054C27.8474 40.1054 24.7599 37.0201 24.7599 33.2106C24.7599 29.4033 27.8475 26.3169 31.6547 26.3169C35.462 26.3169 38.5484 29.4033 38.5484 33.2106C38.5484 37.0201 35.462 40.1054 31.6547 40.1054Z" fill="white"/>
</g>
<defs>
<filter id="filter0_d_120_511" x="9.45801" y="14.1143" width="44.3936" height="43.416" filterUnits="userSpaceOnUse" color-interpolation-filters="sRGB">
<feFlood flood-opacity="0" result="BackgroundImageFix"/>
<feColorMatrix in="SourceAlpha" type="matrix" values="0 0 0 0 0 0 0 0 0 0 0 0 0 0 0 0 0 0 127 0" result="hardAlpha"/>
<feOffset dy="4"/>
<feGaussianBlur stdDeviation="2"/>
<feComposite in2="hardAlpha" operator="out"/>
<feColorMatrix type="matrix" values="0 0 0 0 0 0 0 0 0 0 0 0 0 0 0 0 0 0 0.25 0"/>
<feBlend mode="normal" in2="BackgroundImageFix" result="effect1_dropShadow_120_511"/>
<feBlend mode="normal" in="SourceGraphic" in2="effect1_dropShadow_120_511" result="shape"/>
</filter>
</defs>
</svg>
