<svg width="64" height="64" viewBox="0 0 64 64" fill="none" xmlns="http://www.w3.org/2000/svg">
<path d="M61.6138 31.8223C61.6138 48.3908 48.1823 61.8223 31.6138 61.8223C15.0452 61.8223 1.61377 48.3908 1.61377 31.8223C1.61377 15.2537 15.0452 1.82227 31.6138 1.82227C48.1823 1.82227 61.6138 15.2537 61.6138 31.8223Z" fill="#FF9900"/>
<path fill-rule="evenodd" clip-rule="evenodd" d="M31.6138 3.32227C15.8737 3.32227 3.11377 16.0822 3.11377 31.8223C3.11377 47.5624 15.8737 60.3223 31.6138 60.3223C47.3539 60.3223 60.1138 47.5624 60.1138 31.8223C60.1138 16.0822 47.3539 3.32227 31.6138 3.32227ZM0.11377 31.8223C0.11377 14.4253 14.2168 0.322266 31.6138 0.322266C49.0107 0.322266 63.1138 14.4253 63.1138 31.8223C63.1138 49.2192 49.0107 63.3223 31.6138 63.3223C14.2168 63.3223 0.11377 49.2192 0.11377 31.8223Z" fill="white"/>
<g clip-path="url(#clip0_120_499)">
<g filter="url(#filter0_d_120_499)">
<path d="M26.7737 25.2543C28.9525 24.4886 30.1143 22.0562 29.3676 19.8215C28.622 17.5875 26.2508 16.3949 24.0716 17.1607C21.8927 17.9257 20.731 20.358 21.4769 22.5928C22.2232 24.8282 24.5944 26.0188 26.7737 25.2543Z" fill="white"/>
<path d="M20.1052 31.9121V31.9129C21.3569 29.9292 20.8032 27.2803 18.8702 25.997C16.9364 24.7144 14.3544 25.2811 13.1028 27.2641V27.2648C11.8519 29.2478 12.4055 31.8961 14.3386 33.1786C16.2723 34.4626 18.854 33.8952 20.1052 31.9121Z" fill="white"/>
<path d="M36.454 25.2544C38.6332 26.0188 41.0044 24.8283 41.7507 22.5928C42.4967 20.3581 41.3349 17.9257 39.1561 17.1607C36.9768 16.3948 34.6057 17.5875 33.86 19.8215C33.1134 22.0563 34.2752 24.4887 36.454 25.2544Z" fill="white"/>
<path d="M31.614 27.3569C25.0225 27.3569 17.7496 36.7178 19.8551 43.3784C21.8879 49.8091 28.2391 47.1588 31.614 47.1588C34.9889 47.1588 41.34 49.8091 43.3728 43.3784C45.4783 36.7178 38.2054 27.3569 31.614 27.3569Z" fill="white"/>
<path d="M50.1248 27.2648V27.2641C48.8732 25.2811 46.2913 24.7144 44.3575 25.997C42.4244 27.2803 41.8708 29.9292 43.1223 31.9129V31.9121C44.3735 33.8952 46.9552 34.4626 48.889 33.1786C50.822 31.8961 51.3757 29.2479 50.1248 27.2648Z" fill="white"/>
</g>
</g>
<defs>
<filter id="filter0_d_120_499" x="8.43359" y="16.9287" width="46.3604" height="38.771" filterUnits="userSpaceOnUse" color-interpolation-filters="sRGB">
<feFlood flood-opacity="0" result="BackgroundImageFix"/>
<feColorMatrix in="SourceAlpha" type="matrix" values="0 0 0 0 0 0 0 0 0 0 0 0 0 0 0 0 0 0 127 0" result="hardAlpha"/>
<feOffset dy="4"/>
<feGaussianBlur stdDeviation="2"/>
<feComposite in2="hardAlpha" operator="out"/>
<feColorMatrix type="matrix" values="0 0 0 0 0 0 0 0 0 0 0 0 0 0 0 0 0 0 0.25 0"/>
<feBlend mode="normal" in2="BackgroundImageFix" result="effect1_dropShadow_120_499"/>
<feBlend mode="normal" in="SourceGraphic" in2="effect1_dropShadow_120_499" result="shape"/>
</filter>
<clipPath id="clip0_120_499">
<rect width="38.3607" height="39.3443" fill="white" transform="translate(12.4336 12.6421)"/>
</clipPath>
</defs>
</svg>
